<?xml version="1.0" standalone="no"?>
<!DOCTYPE svg PUBLIC "-//W3C//DTD SVG 20010904//EN"
 "http://www.w3.org/TR/2001/REC-SVG-20010904/DTD/svg10.dtd">
<svg version="1.0" xmlns="http://www.w3.org/2000/svg"
 width="1628.000000pt" height="1628.000000pt" viewBox="0 0 1628.000000 1628.000000"
 preserveAspectRatio="xMidYMid meet">
<metadata>
Created by potrace 1.11, written by Peter Selinger 2001-2013
</metadata>
<g transform="translate(0.000000,1628.000000) scale(0.100000,-0.100000)"
fill="#000000" stroke="none">
<path d="M8299 13818 c-57 -45 -106 -84 -109 -87 -3 -3 -23 -19 -45 -36 -22
-16 -42 -32 -45 -35 -4 -4 -70 -57 -210 -167 -8 -6 -45 -36 -81 -65 -36 -29
-81 -64 -99 -78 -18 -14 -42 -33 -54 -43 -11 -10 -42 -35 -68 -55 -27 -20 -48
-41 -49 -47 0 -5 -1 -675 -1 -1487 -1 -1079 -4 -1478 -12 -1479 -79 -4 -109
-3 -119 3 -9 5 -12 138 -12 540 l0 533 -216 3 -216 2 1 540 c1 297 -1 541 -4
541 -28 7 -713 2 -718 -5 -3 -5 -6 -165 -6 -355 l-1 -346 -335 -1 c-184 -1
-340 -2 -346 -3 -11 -1 -14 -219 -16 -924 l-1 -197 -191 2 -191 3 0 152 c0 95
4 154 10 156 5 2 20 3 33 2 12 -1 22 1 22 4 0 4 -59 74 -131 156 -72 83 -143
165 -156 183 -14 17 -29 32 -33 32 -4 0 -72 -77 -151 -172 -79 -94 -150 -177
-157 -185 -14 -14 -14 -14 18 -18 11 -1 24 -3 29 -4 6 0 9 -74 8 -178 l-2
-178 -140 0 -140 1 -2 789 c-1 435 -2 795 -2 800 -1 13 -21 33 -250 259 l-182
179 -47 -46 c-26 -25 -124 -121 -219 -214 l-172 -168 0 -365 c1 -201 0 -382 0
-402 l-1 -38 -287 -2 -288 -3 -1 -240 c-1 -132 -2 -245 -3 -250 -1 -7 -99 -10
-286 -10 -186 0 -285 -3 -286 -10 0 -5 -1 -281 -1 -612 l-1 -601 -47 -4 c-26
-1 -58 -1 -71 2 l-24 5 0 235 c1 129 -1 242 -3 250 -3 13 -51 15 -365 14 -337
-2 -470 -6 -557 -19 -505 -76 -891 -351 -1105 -790 -66 -134 -100 -235 -137
-409 -17 -82 -21 -137 -22 -291 -1 -168 6 -289 19 -335 4 -15 12 -52 21 -104
12 -64 89 -267 137 -361 46 -90 107 -188 147 -238 230 -285 504 -453 860 -527
148 -30 196 -33 652 -31 478 2 431 10 443 -74 3 -22 12 -74 20 -115 16 -81 25
-131 30 -170 2 -14 14 -79 25 -145 12 -66 24 -133 26 -150 3 -16 9 -50 14 -75
5 -25 14 -74 19 -110 6 -36 13 -76 16 -90 3 -13 16 -90 30 -170 14 -80 27
-158 30 -175 27 -147 35 -195 40 -225 3 -19 8 -48 12 -65 3 -16 7 -37 8 -45 4
-26 15 -95 20 -120 3 -14 8 -41 10 -60 3 -19 8 -46 11 -60 3 -14 8 -36 10 -50
9 -53 14 -86 19 -110 6 -30 12 -64 20 -110 3 -19 10 -60 15 -90 5 -30 12 -71
15 -90 3 -19 12 -69 20 -110 8 -41 24 -129 35 -195 11 -66 23 -131 25 -145 3
-14 16 -90 30 -170 14 -80 27 -155 29 -166 2 -12 7 -39 10 -60 4 -22 13 -75
21 -119 8 -44 17 -96 20 -115 3 -19 8 -46 10 -60 3 -14 8 -36 10 -50 3 -14 8
-41 11 -60 3 -19 17 -98 30 -175 13 -77 27 -155 30 -174 9 -54 42 -154 74
-226 44 -98 104 -182 197 -272 67 -65 102 -90 176 -126 210 -102 286 -106 682
-34 17 3 71 13 120 21 50 9 101 18 115 21 14 3 39 8 55 10 17 3 55 10 85 16
30 6 66 12 80 14 146 23 309 60 370 85 279 115 452 374 454 680 0 93 -9 214
-19 230 -2 3 -6 24 -9 46 -4 22 -9 51 -11 64 -3 14 -14 77 -25 140 -11 63 -22
126 -25 140 -3 14 -14 78 -26 142 -11 64 -22 127 -25 140 -4 24 -10 54 -20
111 -3 17 -12 68 -20 112 -7 44 -23 132 -34 195 -11 63 -22 126 -25 140 -3 14
-8 41 -11 60 -3 19 -18 107 -34 195 -16 88 -32 176 -35 195 -6 35 -21 118 -28
155 -3 11 -8 40 -12 65 -14 83 -31 181 -105 595 -12 66 -24 134 -26 150 -3 17
-11 64 -20 105 -8 41 -17 93 -19 115 -3 22 -10 56 -15 75 -20 72 -23 72 118
34 70 -19 134 -37 142 -39 8 -1 157 -42 330 -89 349 -94 428 -116 450 -121 22
-5 236 -63 295 -80 60 -17 354 -96 375 -100 8 -2 125 -34 260 -70 135 -37 252
-69 260 -70 8 -2 62 -17 120 -33 170 -47 304 -84 324 -88 10 -2 33 -8 51 -14
18 -6 42 -13 54 -15 37 -9 230 -61 391 -106 41 -12 82 -22 90 -24 8 -2 76 -20
150 -40 74 -20 142 -38 150 -41 17 -4 151 -40 285 -77 50 -13 144 -39 210 -56
66 -18 143 -39 170 -46 108 -30 411 -112 855 -231 256 -69 589 -160 740 -201
235 -63 325 -87 410 -107 8 -2 81 -20 162 -40 81 -21 155 -39 165 -41 10 -2
74 -17 143 -35 69 -18 132 -33 140 -35 8 -2 92 -22 185 -45 94 -23 177 -43
185 -45 8 -2 191 -47 405 -100 215 -53 397 -98 405 -100 24 -5 222 -56 255
-65 46 -13 143 -43 340 -105 l180 -56 195 0 c107 0 215 0 240 1 l45 1 -55 18
c-30 10 -95 30 -145 45 -49 15 -103 33 -120 39 -16 6 -34 12 -38 12 -20 0 -22
32 -6 127 10 56 20 130 24 165 3 34 8 72 10 85 2 13 6 48 10 79 3 31 7 65 9
75 2 11 7 51 11 89 3 39 8 85 11 102 2 18 6 48 8 65 7 47 25 222 32 301 3 37
7 77 9 87 2 10 7 59 10 107 4 48 9 97 11 108 2 11 6 51 9 90 5 65 7 96 20 230
2 28 7 86 10 130 3 44 7 98 9 120 2 22 7 83 11 135 3 52 8 118 10 145 2 28 7
95 10 150 3 55 8 123 10 150 2 28 7 109 10 180 3 72 8 155 10 185 4 48 10 180
20 440 27 704 27 2056 0 2580 -2 41 -7 136 -10 210 -3 74 -7 164 -10 200 -3
36 -7 108 -10 160 -8 154 -30 473 -40 580 -3 25 -7 79 -10 120 -4 41 -8 91
-10 110 -2 19 -6 71 -9 116 -4 44 -8 91 -11 105 -2 13 -6 56 -10 94 -3 39 -8
83 -10 98 -2 15 -6 60 -10 100 -4 40 -8 79 -10 87 -2 9 -6 46 -9 82 -4 37 -8
75 -10 85 -2 10 -7 52 -11 93 -4 41 -8 77 -10 80 -1 3 -6 32 -9 65 -4 33 -9
71 -11 85 -2 14 -9 63 -15 110 -7 47 -14 99 -17 115 -2 17 -6 41 -7 55 -3 21
-14 95 -31 205 -2 11 -9 60 -16 108 l-13 88 -55 -6 c-30 -3 -73 -14 -95 -24
-64 -27 -101 -42 -411 -159 -159 -60 -382 -145 -494 -187 -111 -43 -215 -77
-229 -77 -15 0 -31 -7 -37 -14 -5 -8 -100 -48 -210 -89 -110 -42 -207 -79
-215 -82 -8 -3 -17 -7 -20 -8 -3 -1 -16 -6 -30 -12 -14 -6 -56 -22 -95 -36
-38 -14 -142 -53 -230 -87 -88 -34 -182 -69 -210 -79 -291 -106 -418 -151
-423 -151 -4 0 -7 288 -7 640 0 352 -2 640 -5 640 -10 1 -496 1 -537 1 l-41
-1 -1 -1117 c0 -615 0 -1135 0 -1155 l-1 -38 -140 0 -140 0 -1 38 c0 20 0 247
0 505 l-1 467 -21 1 c-12 0 -77 0 -144 0 l-123 0 -1 47 c0 26 -2 74 -2 107
l-2 60 -75 2 c-41 0 -89 2 -106 2 l-31 1 -1 128 c0 70 0 134 -1 143 -1 14 -26
16 -218 15 l-218 -1 0 -137 c0 -75 -3 -139 -6 -143 -4 -3 -52 -6 -108 -6
l-101 0 0 -109 0 -109 -97 0 c-54 0 -119 0 -145 0 l-48 -1 0 -720 0 -720 -27
-1 c-75 -2 -173 0 -180 4 -4 3 -8 681 -8 1506 0 826 -1 1501 -1 1501 -1 0 -48
-37 -105 -82z m5280 -630 c-2 -7 0 -31 4 -53 3 -22 9 -58 12 -80 3 -22 7 -51
9 -65 2 -14 7 -47 11 -73 4 -27 8 -56 10 -65 1 -10 6 -39 9 -67 4 -27 9 -61
11 -75 2 -14 6 -52 10 -85 3 -33 8 -67 10 -75 5 -18 9 -54 35 -285 11 -99 22
-196 25 -215 2 -19 7 -64 10 -100 3 -36 8 -81 10 -100 2 -19 7 -62 10 -95 3
-33 8 -82 10 -110 3 -27 7 -79 10 -114 2 -34 7 -86 10 -115 2 -28 7 -85 10
-126 3 -41 7 -95 9 -120 3 -25 7 -90 11 -145 3 -55 7 -125 10 -155 4 -51 13
-204 20 -345 2 -33 6 -136 10 -230 4 -93 8 -204 10 -245 10 -199 18 -729 18
-1125 0 -663 -14 -1163 -48 -1820 -3 -55 -8 -140 -10 -190 -3 -49 -7 -119 -10
-155 -3 -36 -7 -101 -10 -145 -3 -44 -7 -109 -10 -145 -2 -36 -7 -103 -10
-150 -3 -47 -8 -101 -10 -120 -2 -19 -7 -73 -10 -120 -12 -161 -19 -234 -30
-350 -2 -25 -7 -76 -10 -115 -3 -38 -8 -77 -10 -85 -2 -8 -6 -55 -10 -103 -3
-48 -8 -96 -10 -106 -2 -9 -6 -51 -10 -92 -3 -41 -8 -85 -10 -99 -6 -45 -14
-114 -21 -175 -3 -33 -8 -68 -10 -78 -2 -10 -6 -48 -10 -85 -3 -36 -7 -73 -9
-82 -2 -8 -6 -46 -11 -85 -4 -38 -9 -72 -9 -75 -2 -6 -13 -82 -19 -125 -2 -16
-5 -32 -6 -35 -7 -22 -133 403 -195 655 -64 263 -157 731 -180 910 -2 17 -6
44 -9 60 -2 17 -12 84 -21 150 -9 66 -18 131 -20 145 -8 51 -20 148 -30 240
-4 30 -8 66 -10 80 -2 14 -7 54 -10 90 -3 36 -8 83 -11 105 -2 22 -6 60 -8 85
-4 47 -14 160 -21 245 -3 28 -7 82 -10 120 -3 39 -7 97 -10 130 -2 33 -7 107
-10 165 -3 58 -8 134 -10 170 -35 514 -40 1724 -10 2175 2 33 7 112 10 175 9
161 21 339 30 454 2 28 7 83 10 121 9 107 22 242 30 305 2 19 7 64 10 100 4
36 8 76 10 90 2 14 11 81 20 150 18 144 21 166 31 235 4 28 8 59 10 70 1 11 3
20 4 20 1 0 3 9 4 20 11 78 20 136 41 250 13 72 26 144 30 162 9 54 55 263 81
373 14 58 27 112 29 121 23 113 174 587 200 629 9 14 16 13 14 -2z"/>
<path d="M15685 11400 c-121 -66 -221 -120 -222 -120 -1 0 -76 -40 -165 -88
-90 -49 -203 -110 -253 -137 -49 -26 -144 -77 -210 -113 -66 -35 -142 -77
-170 -92 -27 -15 -82 -44 -122 -65 l-72 -38 29 -58 c32 -63 45 -75 63 -61 7 5
53 31 102 57 113 60 181 97 270 145 39 21 189 102 335 180 146 79 294 159 330
178 144 78 169 91 273 146 59 32 107 61 107 66 0 14 -57 114 -67 117 -4 1
-107 -51 -228 -117z"/>
<path d="M14543 8648 l2 -73 865 0 865 0 1 73 1 72 -868 0 -867 0 1 -72z"/>
<path d="M14506 6727 c-40 -73 -46 -64 88 -135 45 -24 119 -64 166 -89 47 -25
114 -62 150 -81 36 -19 88 -47 115 -62 28 -15 89 -48 137 -73 47 -26 101 -55
120 -65 19 -11 79 -43 134 -72 92 -49 122 -65 259 -140 28 -15 94 -51 147 -79
l96 -51 34 63 34 64 -29 17 c-16 9 -77 42 -136 73 -58 32 -124 67 -146 79 -22
13 -67 37 -100 55 -33 17 -94 50 -135 72 -41 22 -97 52 -125 67 -27 15 -90 49
-140 75 -49 26 -94 51 -100 55 -5 4 -57 32 -115 62 -117 62 -227 121 -342 184
l-77 42 -35 -61z"/>
</g>
</svg>
